<?xml version="1.0" encoding="utf-8"?>
<!-- Generator: Adobe Illustrator 19.1.0, SVG Export Plug-In . SVG Version: 6.00 Build 0)  -->
<svg version="1.1" xmlns="http://www.w3.org/2000/svg" xmlns:xlink="http://www.w3.org/1999/xlink" x="0px" y="0px" width="83px"
	 height="83px" viewBox="0 0 83 83" style="enable-background:new 0 0 83 83;" xml:space="preserve">
<style type="text/css">
	.st0{fill:none;stroke:#FFFFFF;stroke-width:3;stroke-miterlimit:10;}
	.st1{fill:#FFFFFF;}
</style>
<g id="Layer_2">
	<path class="st0" d="M41.5,1.5c22.1,0,40,17.9,40,40s-17.9,40-40,40s-40-17.9-40-40S19.4,1.5,41.5,1.5z"/>
</g>
<g id="Layer_1">
	<g>
		<g>
			<path class="st1" d="M61.6,30.4c-1.2-1.2-3.1-1.2-4.3,0L41,47.1L24.6,30.4c-1.2-1.2-3.1-1.2-4.3,0c-1.2,1.2-1.2,3.1,0,4.3
				l18.5,18.9c0.6,0.6,1.4,0.9,2.1,0.9c0.8,0,1.5-0.3,2.1-0.9l18.5-18.9C62.8,33.5,62.8,31.6,61.6,30.4z"/>
		</g>
	</g>
</g>
</svg>
