<?xml version="1.0" encoding="utf-8"?>
<!-- Generator: Adobe Illustrator 19.1.0, SVG Export Plug-In . SVG Version: 6.00 Build 0)  -->
<svg version="1.1" id="Layer_1" xmlns="http://www.w3.org/2000/svg" xmlns:xlink="http://www.w3.org/1999/xlink" x="0px" y="0px"
	 width="305px" height="46px" viewBox="0 0 305 46" style="enable-background:new 0 0 305 46;" xml:space="preserve">
<g>
	<g>
		<path d="M32,0H0v1.9h28.1L10.7,23.3H5.2V25h5.5l19,21l1.4-1.3L12.3,23.9L32,0z M35.5,0v1.9h19.1l6,7.1L62,8l-6.6-8H35.5z M54.5,44
			H39.7L20.3,22.6l-1.4,1.3l20,22.1h16.5l6.6-8.2l-1.4-1.1L54.5,44z M93.8,23.6c0.4-0.1,0.8-0.3,1.2-0.6c0.3-0.3,0.6-0.6,0.7-1
			c0.1-0.4,0.2-0.7,0.2-1.2c0-0.8-0.2-1.5-0.7-2.1c-0.5-0.6-1.1-0.9-1.9-0.9l-4.1,0v10.9h1.4v-5.6l4.1,5.6l1.8,0l-4.1-5.2L93.8,23.6
			z M90.6,19h2.1c0.1,0,0.2,0,0.4,0.1c0.1,0,0.3,0.1,0.4,0.1c0.3,0.1,0.6,0.4,0.8,0.7c0.2,0.3,0.3,0.7,0.3,1.1
			c0,0.5-0.1,0.9-0.4,1.2c-0.3,0.3-0.6,0.5-1.1,0.5h-2.4V19z M107,22.8l-2.8-4.9l-1.6,0l3.7,6v4.9h1.3v-4.9l3.6-6l-1.5,0L107,22.8z
			 M121.4,17.6l-4.8,11.2l1.4,0l1.4-3.4h4.4l1.4,3.4l1.5,0l-5-11.2H121.4z M119.7,24.4l1.8-4.7l1.8,4.7H119.7z M140.2,26.4l-7.9-8.8
			l-0.3,0v11.2h1.2v-8.5l8,8.8h0.3V17.9h-1.3V26.4z M166.2,17.6c-1.6,0-3,0.6-4.1,1.7c-1.1,1.1-1.7,2.5-1.7,4.1c0,1.6,0.6,2.9,1.8,4
			c1.2,1.1,2.6,1.7,4.2,1.7c1.6,0,3-0.6,4.1-1.7c1.1-1.1,1.7-2.5,1.7-4.1c0-1.6-0.6-2.9-1.8-4C169.2,18.1,167.8,17.6,166.2,17.6z
			 M169.5,26.5c-0.9,0.9-1.9,1.4-3.2,1.4c-1.3,0-2.4-0.4-3.3-1.3c-0.9-0.9-1.4-1.9-1.4-3.2c0-1.3,0.4-2.4,1.3-3.3
			c0.9-0.9,1.9-1.4,3.2-1.4c1.3,0,2.4,0.4,3.3,1.3c0.9,0.9,1.4,1.9,1.4,3.2C170.8,24.5,170.4,25.6,169.5,26.5z M181,17.6
			c-1.6,0-3,0.6-4.1,1.7c-1.1,1.1-1.7,2.5-1.7,4.1c0,1.6,0.6,2.9,1.8,4c1.2,1.1,2.6,1.7,4.2,1.7c1.6,0,3-0.6,4.1-1.7
			c1.1-1.1,1.7-2.5,1.7-4.1c0-1.6-0.6-2.9-1.8-4C184,18.1,182.6,17.6,181,17.6z M184.3,26.5c-0.9,0.9-1.9,1.4-3.2,1.4
			c-1.3,0-2.4-0.4-3.3-1.3c-0.9-0.9-1.4-1.9-1.4-3.2c0-1.3,0.4-2.4,1.3-3.3c0.9-0.9,1.9-1.4,3.2-1.4c1.3,0,2.4,0.4,3.3,1.3
			c0.9,0.9,1.4,1.9,1.4,3.2C185.6,24.5,185.2,25.6,184.3,26.5z M197.5,23.1l-2.8-1c-0.6-0.3-0.9-0.8-0.9-1.5c0-0.3,0.1-0.5,0.2-0.8
			c0.2-0.3,0.4-0.6,0.7-0.7c0.3-0.1,0.6-0.2,1-0.2c0.5,0,0.9,0.1,1.4,0.4c0.4,0.3,0.7,0.6,0.8,1.1l1.2-0.5c-0.2-0.5-0.5-1-0.9-1.3
			c-0.4-0.4-0.8-0.6-1.2-0.6c-0.4-0.1-0.6-0.1-0.7-0.1c-0.1,0-0.2,0-0.4,0c-0.4,0-0.8,0-1.2,0.1c-0.5,0.1-0.9,0.4-1.3,0.8
			c-0.4,0.4-0.6,0.8-0.7,1.2c-0.1,0.4-0.1,0.7-0.1,0.8c0,0.6,0.2,1.1,0.5,1.6c0.3,0.5,0.8,0.8,1.4,1.1l1.9,0.7
			c0.4,0.2,0.6,0.3,0.7,0.4c0.1,0.1,0.3,0.2,0.5,0.5c0.2,0.2,0.3,0.6,0.3,1c0,0.3-0.1,0.6-0.2,0.9c-0.1,0.3-0.3,0.5-0.5,0.7
			c-0.2,0.2-0.4,0.3-0.7,0.4c-0.2,0.1-0.5,0.1-0.7,0.1c-0.6,0-1.1-0.2-1.6-0.6c-0.4-0.4-0.7-0.9-0.7-1.6l-1.2,0.6
			c0.1,0.5,0.3,0.9,0.5,1.2c0.2,0.3,0.4,0.6,0.8,0.9c0.6,0.4,1.3,0.6,2.1,0.6c0.9,0,1.6-0.2,2.3-0.7c0.4-0.3,0.7-0.7,0.9-1.2
			c0.2-0.4,0.3-0.9,0.3-1.4c0-0.6-0.1-1.1-0.4-1.6C198.4,23.8,198,23.4,197.5,23.1z M206.6,19h3.2v9.8h1.4V19h3.2v-1.2h-7.7V19z
			 M222.2,28.8h5.9v-1.2h-4.6v-4.2h4.6v-1.1h-4.6v-3.2h4.6v-1.2h-5.9V28.8z M241.7,23.6c0.4-0.1,0.8-0.3,1.2-0.6
			c0.3-0.3,0.6-0.6,0.7-1c0.1-0.4,0.2-0.7,0.2-1.2c0-0.8-0.2-1.5-0.7-2.1c-0.5-0.6-1.1-0.9-1.9-0.9l-4.1,0v10.9h1.4v-5.6l4.1,5.6
			l1.8,0l-4.1-5.2L241.7,23.6z M238.5,19h2.1c0.1,0,0.2,0,0.4,0.1c0.1,0,0.3,0.1,0.4,0.1c0.3,0.1,0.6,0.4,0.8,0.7
			c0.2,0.3,0.3,0.7,0.3,1.1c0,0.5-0.1,0.9-0.4,1.2c-0.3,0.3-0.6,0.5-1.1,0.5h-2.4V19z M253.3,17.9h-1.4v10.9h5.4v-1.2h-4V17.9z
			 M269,28.8h1.3V17.9H269V28.8z M288.1,26.4l-7.9-8.8l-0.3,0v11.2h1.2v-8.5l8,8.8h0.3V17.9h-1.3V26.4z M300.4,23.3v1.1l3.2,0
			c-0.1,0.5-0.2,0.9-0.4,1.3c-0.2,0.4-0.5,0.8-0.8,1.1c-0.4,0.3-0.8,0.6-1.3,0.8c-0.5,0.2-1,0.3-1.6,0.3c-0.7,0-1.4-0.1-2-0.4
			c-0.6-0.3-1.2-0.8-1.7-1.5c-0.5-0.7-0.8-1.5-0.8-2.6c0-1,0.3-1.9,0.9-2.8c0.6-0.8,1.4-1.4,2.3-1.7c0.4-0.1,0.7-0.1,1.1-0.1
			c0.8,0,1.5,0.2,2.1,0.6c0.7,0.4,1.2,0.9,1.7,1.6l1-0.9c-0.5-0.9-1.3-1.5-2.2-1.9c-0.9-0.3-2-0.5-3.3-0.5c-1.2,0.1-2.3,0.7-3.2,1.5
			c-0.9,0.9-1.4,1.7-1.5,2.4c-0.1,0.7-0.2,1.2-0.2,1.3c0,0.1,0,0.3,0,0.5c0,0.9,0.2,1.7,0.5,2.5c0.3,0.8,0.9,1.5,1.5,2
			c0.5,0.4,1.1,0.7,1.8,0.9c0.7,0.2,1.3,0.3,2,0.3c0.6,0,1.2-0.1,1.7-0.2c0.6-0.1,1.1-0.4,1.6-0.7c0.8-0.6,1.3-1.3,1.6-2.1
			c0.3-0.8,0.5-1.7,0.5-2.8H300.4z"/>
	</g>
</g>
</svg>
