<svg xmlns="http://www.w3.org/2000/svg" width="83" height="83" viewBox="0 0 83 83"><style>.st0{fill:none;stroke:#FFF;stroke-width:3;stroke-miterlimit:10}.st1{fill:#FFF}</style><path class="st0" d="M41.5 1.5c22.1 0 40 17.9 40 40s-17.9 40-40 40-40-17.9-40-40 17.9-40 40-40z" id="Layer_2"/><path class="st1" d="M61.6 30.4c-1.2-1.2-3.1-1.2-4.3 0L41 47.1 24.6 30.4c-1.2-1.2-3.1-1.2-4.3 0-1.2 1.2-1.2 3.1 0 4.3l18.5 18.9c.6.6 1.4.9 2.1.9.8 0 1.5-.3 2.1-.9l18.5-18.9c1.3-1.2 1.3-3.1.1-4.3z" id="Layer_1"/></svg>