<svg xmlns="http://www.w3.org/2000/svg" width="305" height="46" viewBox="0 0 305 46"><path d="M32 0H0v1.9h28.1L10.7 23.3H5.2V25h5.5l19 21 1.4-1.3-18.8-20.8L32 0zm3.5 0v1.9h19.1l6 7.1L62 8l-6.6-8H35.5zm19 44H39.7L20.3 22.6l-1.4 1.3 20 22.1h16.5l6.6-8.2-1.4-1.1-6.1 7.3zm39.3-20.4c.4-.1.8-.3 1.2-.6.3-.3.6-.6.7-1 .1-.4.2-.7.2-1.2 0-.8-.2-1.5-.7-2.1-.5-.6-1.1-.9-1.9-.9h-4.1v10.9h1.4v-5.6l4.1 5.6h1.8l-4.1-5.2 1.4.1zM90.6 19h2.1c.1 0 .2 0 .4.1.1 0 .3.1.4.1.3.1.6.4.8.7.2.3.3.7.3 1.1 0 .5-.1.9-.4 1.2-.3.3-.6.5-1.1.5h-2.4V19zm16.4 3.8l-2.8-4.9h-1.6l3.7 6v4.9h1.3v-4.9l3.6-6h-1.5l-2.7 4.9zm14.4-5.2l-4.8 11.2h1.4l1.4-3.4h4.4l1.4 3.4h1.5l-5-11.2h-.3zm-1.7 6.8l1.8-4.7 1.8 4.7h-3.6zm20.5 2l-7.9-8.8h-.3v11.2h1.2v-8.5l8 8.8h.3V17.9h-1.3v8.5zm26-8.8c-1.6 0-3 .6-4.1 1.7-1.1 1.1-1.7 2.5-1.7 4.1 0 1.6.6 2.9 1.8 4 1.2 1.1 2.6 1.7 4.2 1.7s3-.6 4.1-1.7c1.1-1.1 1.7-2.5 1.7-4.1 0-1.6-.6-2.9-1.8-4-1.2-1.2-2.6-1.7-4.2-1.7zm3.3 8.9c-.9.9-1.9 1.4-3.2 1.4-1.3 0-2.4-.4-3.3-1.3-.9-.9-1.4-1.9-1.4-3.2 0-1.3.4-2.4 1.3-3.3.9-.9 1.9-1.4 3.2-1.4 1.3 0 2.4.4 3.3 1.3.9.9 1.4 1.9 1.4 3.2 0 1.3-.4 2.4-1.3 3.3zm11.5-8.9c-1.6 0-3 .6-4.1 1.7-1.1 1.1-1.7 2.5-1.7 4.1 0 1.6.6 2.9 1.8 4 1.2 1.1 2.6 1.7 4.2 1.7s3-.6 4.1-1.7c1.1-1.1 1.7-2.5 1.7-4.1 0-1.6-.6-2.9-1.8-4-1.2-1.2-2.6-1.7-4.2-1.7zm3.3 8.9c-.9.9-1.9 1.4-3.2 1.4-1.3 0-2.4-.4-3.3-1.3-.9-.9-1.4-1.9-1.4-3.2 0-1.3.4-2.4 1.3-3.3.9-.9 1.9-1.4 3.2-1.4 1.3 0 2.4.4 3.3 1.3.9.9 1.4 1.9 1.4 3.2 0 1.3-.4 2.4-1.3 3.3zm13.2-3.4l-2.8-1c-.6-.3-.9-.8-.9-1.5 0-.3.1-.5.2-.8.2-.3.4-.6.7-.7.3-.1.6-.2 1-.2.5 0 .9.1 1.4.4.4.3.7.6.8 1.1l1.2-.5c-.2-.5-.5-1-.9-1.3-.4-.4-.8-.6-1.2-.6-.4-.1-.6-.1-.7-.1h-.4c-.4 0-.8 0-1.2.1-.5.1-.9.4-1.3.8s-.6.8-.7 1.2c-.1.4-.1.7-.1.8 0 .6.2 1.1.5 1.6s.8.8 1.4 1.1l1.9.7c.4.2.6.3.7.4.1.1.3.2.5.5.2.2.3.6.3 1 0 .3-.1.6-.2.9-.1.3-.3.5-.5.7-.2.2-.4.3-.7.4-.2.1-.5.1-.7.1-.6 0-1.1-.2-1.6-.6-.4-.4-.7-.9-.7-1.6l-1.2.6c.1.5.3.9.5 1.2.2.3.4.6.8.9.6.4 1.3.6 2.1.6.9 0 1.6-.2 2.3-.7.4-.3.7-.7.9-1.2.2-.4.3-.9.3-1.4 0-.6-.1-1.1-.4-1.6-.4-.6-.8-1-1.3-1.3zm9.1-4.1h3.2v9.8h1.4V19h3.2v-1.2h-7.7V19zm15.6 9.8h5.9v-1.2h-4.6v-4.2h4.6v-1.1h-4.6v-3.2h4.6v-1.2h-5.9v10.9zm19.5-5.2c.4-.1.8-.3 1.2-.6.3-.3.6-.6.7-1 .1-.4.2-.7.2-1.2 0-.8-.2-1.5-.7-2.1-.5-.6-1.1-.9-1.9-.9h-4.1v10.9h1.4v-5.6l4.1 5.6h1.8l-4.1-5.2 1.4.1zm-3.2-4.6h2.1c.1 0 .2 0 .4.1.1 0 .3.1.4.1.3.1.6.4.8.7.2.3.3.7.3 1.1 0 .5-.1.9-.4 1.2-.3.3-.6.5-1.1.5h-2.4V19zm14.8-1.1h-1.4v10.9h5.4v-1.2h-4v-9.7zM269 28.8h1.3V17.9H269v10.9zm19.1-2.4l-7.9-8.8h-.3v11.2h1.2v-8.5l8 8.8h.3V17.9h-1.3v8.5zm12.3-3.1v1.1h3.2c-.1.5-.2.9-.4 1.3s-.5.8-.8 1.1c-.4.3-.8.6-1.3.8-.5.2-1 .3-1.6.3-.7 0-1.4-.1-2-.4-.6-.3-1.2-.8-1.7-1.5s-.8-1.5-.8-2.6c0-1 .3-1.9.9-2.8.6-.8 1.4-1.4 2.3-1.7.4-.1.7-.1 1.1-.1.8 0 1.5.2 2.1.6.7.4 1.2.9 1.7 1.6l1-.9c-.5-.9-1.3-1.5-2.2-1.9-.9-.3-2-.5-3.3-.5-1.2.1-2.3.7-3.2 1.5-.9.9-1.4 1.7-1.5 2.4-.1.7-.2 1.2-.2 1.3v.5c0 .9.2 1.7.5 2.5s.9 1.5 1.5 2c.5.4 1.1.7 1.8.9.7.2 1.3.3 2 .3.6 0 1.2-.1 1.7-.2.6-.1 1.1-.4 1.6-.7.8-.6 1.3-1.3 1.6-2.1.3-.8.5-1.7.5-2.8h-4.5z"/></svg>