<svg xmlns="http://www.w3.org/2000/svg" width="399" height="163" viewBox="0 0 399 163"><path d="M147.5 57.3h-13.3v4.2h13.4l46.1 51.6 3.4-3.2-45.5-51.1L199.4 0h-77.7v4.7h68.2l-42.4 52.6zM207.7 0v4.7H254l14.6 17.6 3.5-2.7-16-19.6h-48.4zm46.2 108.3H218l-47.2-52.8-3.3 3.3 48.6 54.2h40l16-20.2-3.5-2.7-14.7 18.2zM8.5 152.8c.8-.2 1.5-.6 2.2-1.2.6-.5 1-1.2 1.3-1.8.3-.7.4-1.4.4-2.1 0-1.4-.5-2.7-1.4-3.8-.9-1.1-2.1-1.6-3.5-1.6l-7.5-.1v20.3h2.5v-10.4l7.6 10.4h3.3l-7.6-9.6 2.7-.1zm-6-8.5h3.9c.2 0 .5 0 .7.1.3.1.5.1.8.2.6.3 1.1.7 1.4 1.3.3.6.5 1.3.5 2 0 .9-.2 1.6-.7 2.2-.5.6-1.2.9-2 .9H2.5v-6.7zm30.5 6.9l-5.2-9h-3l6.9 11.2v9.1h2.5v-9.1l6.6-11.2H38l-5 9zm26.4-9.6l-8.9 20.9h2.6l2.6-6.3h8.1l2.6 6.3h2.8L60 141.6h-.6zm-3 12.7l3.3-8.8 3.4 8.8h-6.7zm37.9 3.7l-14.6-16.3h-.6v20.8h2.3v-15.8L96.2 163h.5v-20.7h-2.3V158zm48-16.4c-3 0-5.5 1.1-7.6 3.2-2.1 2.1-3.2 4.7-3.2 7.7s1.1 5.5 3.3 7.5c2.2 2 4.8 3.1 7.8 3.1s5.5-1.1 7.6-3.2c2.1-2.1 3.2-4.7 3.2-7.7s-1.1-5.5-3.3-7.5c-2.2-2.1-4.8-3.1-7.8-3.1zm6.2 16.5c-1.6 1.7-3.6 2.5-5.9 2.5-2.4 0-4.4-.8-6.1-2.4-1.7-1.6-2.5-3.6-2.5-5.9 0-2.4.8-4.4 2.4-6.1 1.6-1.7 3.6-2.5 5.9-2.5 2.4 0 4.4.8 6 2.4 1.7 1.6 2.5 3.6 2.5 5.9.1 2.4-.7 4.5-2.3 6.1zm21.1-16.5c-3 0-5.5 1.1-7.6 3.2-2.1 2.1-3.2 4.7-3.2 7.7s1.1 5.5 3.3 7.5c2.2 2 4.8 3.1 7.8 3.1s5.5-1.1 7.6-3.2c2.1-2.1 3.2-4.7 3.2-7.7s-1.1-5.5-3.3-7.5c-2.1-2.1-4.7-3.1-7.8-3.1zm6.2 16.5c-1.6 1.7-3.6 2.5-5.9 2.5-2.4 0-4.4-.8-6.1-2.4-1.7-1.6-2.5-3.6-2.5-5.9 0-2.4.8-4.4 2.4-6.1 1.6-1.7 3.6-2.5 5.9-2.5 2.4 0 4.4.8 6 2.4 1.7 1.6 2.5 3.6 2.5 5.9.1 2.4-.7 4.5-2.3 6.1zm24.4-6.3l-5.2-1.9c-1.1-.6-1.7-1.5-1.7-2.8 0-.5.1-1 .3-1.5.3-.6.7-1 1.3-1.3.5-.3 1.1-.4 1.8-.4.9 0 1.8.3 2.5.8.8.5 1.2 1.2 1.4 2l2.2-1c-.3-1-.9-1.8-1.6-2.4-.8-.7-1.5-1.1-2.2-1.2-.7-.1-1.1-.2-1.3-.2h-.7c-.7 0-1.4.1-2.3.3-.9.2-1.7.7-2.4 1.5s-1.2 1.6-1.3 2.3c-.1.7-.2 1.2-.2 1.5 0 1.1.3 2 1 2.9.6.9 1.5 1.5 2.5 2l3.5 1.2c.7.3 1.2.5 1.4.7.2.1.5.4.9.8s.6 1.1.6 1.9c0 .6-.1 1.1-.4 1.7-.2.5-.6.9-1 1.3-.4.3-.8.5-1.3.7-.4.1-.9.2-1.3.2-1.1 0-2.1-.4-2.9-1.2-.8-.8-1.2-1.7-1.2-2.9l-2.2 1.1c.3 1 .6 1.7.9 2.3.3.6.8 1.1 1.5 1.6 1.2.7 2.5 1.1 3.9 1.1 1.6 0 3-.4 4.3-1.3.7-.6 1.2-1.3 1.6-2.1.4-.8.5-1.6.5-2.5 0-1-.3-2-.8-2.9-.4-1.1-1.1-1.8-2.1-2.3zm16.9-7.5h5.8v18.1h2.5v-18.1h5.8v-2.1H217v2.1zm28.8 18.2h11v-2.2h-8.6v-7.8h8.6v-2.1h-8.6v-6h8.6v-2.2h-11v20.3zm36.1-9.7c.8-.2 1.5-.6 2.2-1.2.6-.5 1-1.2 1.3-1.8.3-.7.4-1.4.4-2.1 0-1.4-.5-2.7-1.4-3.8-.9-1.1-2.1-1.6-3.5-1.6l-7.5-.1v20.3h2.5v-10.4l7.6 10.4h3.3l-7.6-9.6 2.7-.1zm-6-8.5h3.9c.2 0 .5 0 .7.1.3.1.5.1.8.2.6.3 1.1.7 1.4 1.3.3.6.5 1.3.5 2 0 .9-.2 1.6-.7 2.2-.5.6-1.2.9-2 .9H276v-6.7zm27.4-2.1h-2.5v20.3h10v-2.2h-7.5v-18.1zm29 20.3h2.4v-20.3h-2.4v20.3zm35.4-4.5l-14.6-16.3h-.6v20.8h2.3v-15.8l14.8 16.3h.5v-20.7h-2.3V158zm22.6-5.9v2l6 .1c-.1.8-.3 1.6-.7 2.4-.4.8-.9 1.5-1.5 2.1-.7.6-1.4 1.1-2.3 1.5-.9.3-1.9.5-2.9.5-1.3 0-2.5-.3-3.7-.8-1.1-.5-2.2-1.4-3.2-2.7-1-1.3-1.5-2.9-1.5-4.8s.5-3.6 1.6-5.2 2.5-2.6 4.3-3.2c.7-.2 1.4-.2 2-.2 1.4 0 2.8.3 4 1 1.2.7 2.2 1.6 3.1 2.9l1.9-1.6c-1-1.7-2.3-2.9-4.1-3.5-1.7-.6-3.8-.9-6.1-.9-2.3.3-4.2 1.2-5.9 2.8-1.7 1.6-2.6 3.1-2.8 4.4-.2 1.4-.4 2.1-.4 2.4v1c0 1.6.3 3.2 1 4.6.6 1.4 1.6 2.7 2.8 3.8 1 .7 2.1 1.2 3.3 1.6 1.2.4 2.4.5 3.7.5 1.1 0 2.2-.1 3.2-.4 1-.3 2-.7 2.9-1.3 1.4-1.1 2.4-2.4 3-3.9.6-1.5.9-3.2.9-5.1h-8.6z"/></svg>