<svg id="Layer_1" xmlns="http://www.w3.org/2000/svg" width="49" height="49" viewBox="0 0 49 49"><style>.st0{fill:#474747}</style><path class="st0" d="M6.3 0h36.4C46.2 0 49 2.6 49 6.3v36.4c0 3.7-2.8 6.3-6.3 6.3H6.3C2.8 49 0 46.4 0 42.7V6.3C0 2.6 2.8 0 6.3 0zm29.4 5.4c-1.2 0-2.2 1-2.2 2.2v5.3c0 1.2 1 2.2 2.2 2.2h5.5c1.2 0 2.2-1 2.2-2.2V7.6c0-1.2-1-2.2-2.2-2.2h-5.5zm7.8 15.3h-4.3c.4 1.3.6 2.7.6 4.2 0 8.1-6.8 14.8-15.2 14.8-8.4 0-15.2-6.6-15.2-14.8 0-1.5.2-2.9.6-4.2H5.4v20.7c0 1.1.9 1.9 1.9 1.9h34.1c1.1 0 1.9-.9 1.9-1.9l.2-20.7zm-19-5.8c-5.4 0-9.8 4.3-9.8 9.5 0 5.3 4.4 9.5 9.8 9.5s9.8-4.3 9.8-9.5c.1-5.3-4.3-9.5-9.8-9.5z"/></svg>