<?xml version="1.0" encoding="utf-8"?>
<!-- Generator: Adobe Illustrator 19.1.0, SVG Export Plug-In . SVG Version: 6.00 Build 0)  -->
<svg version="1.1" id="Layer_1" xmlns="http://www.w3.org/2000/svg" xmlns:xlink="http://www.w3.org/1999/xlink" x="0px" y="0px"
	 width="399px" height="163px" viewBox="0 0 399 163" style="enable-background:new 0 0 399 163;" xml:space="preserve">
<g>
	<g>
		<path d="M147.5,57.3h-13.3v4.2h13.4l46.1,51.6l3.4-3.2l-45.5-51.1L199.4,0h-77.7v4.7h68.2L147.5,57.3z M207.7,0v4.7H254l14.6,17.6
			l3.5-2.7L256.1,0H207.7z M253.9,108.3h-35.9l-47.2-52.8l-3.3,3.3l48.6,54.2h40l16-20.2l-3.5-2.7L253.9,108.3z M8.5,152.8
			c0.8-0.2,1.5-0.6,2.2-1.2c0.6-0.5,1-1.2,1.3-1.8c0.3-0.7,0.4-1.4,0.4-2.1c0-1.4-0.5-2.7-1.4-3.8c-0.9-1.1-2.1-1.6-3.5-1.6L0,142.2
			v20.3h2.5v-10.4l7.6,10.4l3.3,0l-7.6-9.6L8.5,152.8z M2.5,144.3h3.9c0.2,0,0.5,0,0.7,0.1c0.3,0.1,0.5,0.1,0.8,0.2
			c0.6,0.3,1.1,0.7,1.4,1.3c0.3,0.6,0.5,1.3,0.5,2c0,0.9-0.2,1.6-0.7,2.2c-0.5,0.6-1.2,0.9-2,0.9H2.5V144.3z M33,151.2l-5.2-9l-3,0
			l6.9,11.2v9.1h2.5v-9.1l6.6-11.2l-2.8,0L33,151.2z M59.4,141.6l-8.9,20.9l2.6,0l2.6-6.3h8.1l2.6,6.3l2.8,0l-9.2-20.9H59.4z
			 M56.4,154.3l3.3-8.8l3.4,8.8H56.4z M94.3,158l-14.6-16.3l-0.6,0v20.8h2.3v-15.8l14.8,16.3h0.5v-20.7h-2.3V158z M142.3,141.6
			c-3,0-5.5,1.1-7.6,3.2c-2.1,2.1-3.2,4.7-3.2,7.7c0,3,1.1,5.5,3.3,7.5c2.2,2,4.8,3.1,7.8,3.1c3,0,5.5-1.1,7.6-3.2
			c2.1-2.1,3.2-4.7,3.2-7.7c0-3-1.1-5.5-3.3-7.5C147.9,142.6,145.3,141.6,142.3,141.6z M148.5,158.1c-1.6,1.7-3.6,2.5-5.9,2.5
			c-2.4,0-4.4-0.8-6.1-2.4c-1.7-1.6-2.5-3.6-2.5-5.9c0-2.4,0.8-4.4,2.4-6.1c1.6-1.7,3.6-2.5,5.9-2.5c2.4,0,4.4,0.8,6,2.4
			c1.7,1.6,2.5,3.6,2.5,5.9C150.9,154.4,150.1,156.5,148.5,158.1z M169.6,141.6c-3,0-5.5,1.1-7.6,3.2c-2.1,2.1-3.2,4.7-3.2,7.7
			c0,3,1.1,5.5,3.3,7.5c2.2,2,4.8,3.1,7.8,3.1c3,0,5.5-1.1,7.6-3.2c2.1-2.1,3.2-4.7,3.2-7.7c0-3-1.1-5.5-3.3-7.5
			C175.3,142.6,172.7,141.6,169.6,141.6z M175.8,158.1c-1.6,1.7-3.6,2.5-5.9,2.5c-2.4,0-4.4-0.8-6.1-2.4c-1.7-1.6-2.5-3.6-2.5-5.9
			c0-2.4,0.8-4.4,2.4-6.1c1.6-1.7,3.6-2.5,5.9-2.5c2.4,0,4.4,0.8,6,2.4c1.7,1.6,2.5,3.6,2.5,5.9
			C178.2,154.4,177.4,156.5,175.8,158.1z M200.2,151.8l-5.2-1.9c-1.1-0.6-1.7-1.5-1.7-2.8c0-0.5,0.1-1,0.3-1.5
			c0.3-0.6,0.7-1,1.3-1.3c0.5-0.3,1.1-0.4,1.8-0.4c0.9,0,1.8,0.3,2.5,0.8c0.8,0.5,1.2,1.2,1.4,2l2.2-1c-0.3-1-0.9-1.8-1.6-2.4
			c-0.8-0.7-1.5-1.1-2.2-1.2c-0.7-0.1-1.1-0.2-1.3-0.2c-0.2,0-0.4,0-0.7,0c-0.7,0-1.4,0.1-2.3,0.3c-0.9,0.2-1.7,0.7-2.4,1.5
			c-0.7,0.8-1.2,1.6-1.3,2.3c-0.1,0.7-0.2,1.2-0.2,1.5c0,1.1,0.3,2,1,2.9c0.6,0.9,1.5,1.5,2.5,2l3.5,1.2c0.7,0.3,1.2,0.5,1.4,0.7
			c0.2,0.1,0.5,0.4,0.9,0.8c0.4,0.4,0.6,1.1,0.6,1.9c0,0.6-0.1,1.1-0.4,1.7c-0.2,0.5-0.6,0.9-1,1.3c-0.4,0.3-0.8,0.5-1.3,0.7
			c-0.4,0.1-0.9,0.2-1.3,0.2c-1.1,0-2.1-0.4-2.9-1.2c-0.8-0.8-1.2-1.7-1.2-2.9l-2.2,1.1c0.3,1,0.6,1.7,0.9,2.3
			c0.3,0.6,0.8,1.1,1.5,1.6c1.2,0.7,2.5,1.1,3.9,1.1c1.6,0,3-0.4,4.3-1.3c0.7-0.6,1.2-1.3,1.6-2.1c0.4-0.8,0.5-1.6,0.5-2.5
			c0-1-0.3-2-0.8-2.9C201.9,153,201.2,152.3,200.2,151.8z M217.1,144.3h5.8v18.1h2.5v-18.1h5.8v-2.1h-14.2V144.3z M245.9,162.5h11
			v-2.2h-8.6v-7.8h8.6v-2.1h-8.6v-6h8.6v-2.2h-11V162.5z M282,152.8c0.8-0.2,1.5-0.6,2.2-1.2c0.6-0.5,1-1.2,1.3-1.8
			c0.3-0.7,0.4-1.4,0.4-2.1c0-1.4-0.5-2.7-1.4-3.8c-0.9-1.1-2.1-1.6-3.5-1.6l-7.5-0.1v20.3h2.5v-10.4l7.6,10.4l3.3,0l-7.6-9.6
			L282,152.8z M276,144.3h3.9c0.2,0,0.5,0,0.7,0.1c0.3,0.1,0.5,0.1,0.8,0.2c0.6,0.3,1.1,0.7,1.4,1.3c0.3,0.6,0.5,1.3,0.5,2
			c0,0.9-0.2,1.6-0.7,2.2c-0.5,0.6-1.2,0.9-2,0.9H276V144.3z M303.4,142.2h-2.5v20.3h10v-2.2h-7.5V142.2z M332.4,162.5h2.4v-20.3
			h-2.4V162.5z M367.8,158l-14.6-16.3l-0.6,0v20.8h2.3v-15.8l14.8,16.3h0.5v-20.7h-2.3V158z M390.4,152.1v2l6,0.1
			c-0.1,0.8-0.3,1.6-0.7,2.4c-0.4,0.8-0.9,1.5-1.5,2.1c-0.7,0.6-1.4,1.1-2.3,1.5c-0.9,0.3-1.9,0.5-2.9,0.5c-1.3,0-2.5-0.3-3.7-0.8
			c-1.1-0.5-2.2-1.4-3.2-2.7c-1-1.3-1.5-2.9-1.5-4.8c0-1.9,0.5-3.6,1.6-5.2c1.1-1.6,2.5-2.6,4.3-3.2c0.7-0.2,1.4-0.2,2-0.2
			c1.4,0,2.8,0.3,4,1c1.2,0.7,2.2,1.6,3.1,2.9l1.9-1.6c-1-1.7-2.3-2.9-4.1-3.5c-1.7-0.6-3.8-0.9-6.1-0.9c-2.3,0.3-4.2,1.2-5.9,2.8
			c-1.7,1.6-2.6,3.1-2.8,4.4c-0.2,1.4-0.4,2.1-0.4,2.4c0,0.2,0,0.6,0,1c0,1.6,0.3,3.2,1,4.6c0.6,1.4,1.6,2.7,2.8,3.8
			c1,0.7,2.1,1.2,3.3,1.6c1.2,0.4,2.4,0.5,3.7,0.5c1.1,0,2.2-0.1,3.2-0.4c1-0.3,2-0.7,2.9-1.3c1.4-1.1,2.4-2.4,3-3.9
			c0.6-1.5,0.9-3.2,0.9-5.1H390.4z"/>
	</g>
</g>
</svg>
