<?xml version="1.0" encoding="utf-8"?>
<!-- Generator: Adobe Illustrator 19.1.0, SVG Export Plug-In . SVG Version: 6.00 Build 0)  -->
<svg version="1.1" id="Layer_1" xmlns="http://www.w3.org/2000/svg" xmlns:xlink="http://www.w3.org/1999/xlink" x="0px" y="0px"
	 width="24px" height="49px" viewBox="0 0 24 49" style="enable-background:new 0 0 24 49;" xml:space="preserve">
<style type="text/css">
	.st0{fill:#474747;}
</style>
<path class="st0" d="M5.1,10.5c0,1.2,0,6.8,0,6.8H0v8.4h5.1V49h10.7V25.7H23c0,0,0.6-4,0.9-8.7c-0.9,0-8.2,0-8.2,0s0-5,0-5.9
	S17.1,9,18,9c1.3,0,3.5,0,5.7,0c0-1.2,0-5.3,0-9c-2.8,0-6.3,0-7.9,0C4.7,0.6,5.1,9.3,5.1,10.5z"/>
</svg>
