<?xml version="1.0" encoding="utf-8"?>
<!-- Generator: Adobe Illustrator 19.1.0, SVG Export Plug-In . SVG Version: 6.00 Build 0)  -->
<svg version="1.1" id="Layer_1" xmlns="http://www.w3.org/2000/svg" xmlns:xlink="http://www.w3.org/1999/xlink" x="0px" y="0px"
	 width="49px" height="49px" viewBox="0 0 49 49" style="enable-background:new 0 0 49 49;" xml:space="preserve">
<style type="text/css">
	.st0{fill:#474747;}
</style>
<path class="st0" d="M6.3,0h36.4C46.2,0,49,2.6,49,6.3v36.4c0,3.7-2.8,6.3-6.3,6.3H6.3C2.8,49,0,46.4,0,42.7V6.3C0,2.6,2.8,0,6.3,0
	L6.3,0z M35.7,5.4c-1.2,0-2.2,1-2.2,2.2v5.3c0,1.2,1,2.2,2.2,2.2h5.5c1.2,0,2.2-1,2.2-2.2V7.6c0-1.2-1-2.2-2.2-2.2H35.7L35.7,5.4z
	 M43.5,20.7h-4.3c0.4,1.3,0.6,2.7,0.6,4.2c0,8.1-6.8,14.8-15.2,14.8c-8.4,0-15.2-6.6-15.2-14.8c0-1.5,0.2-2.9,0.6-4.2H5.4v20.7
	c0,1.1,0.9,1.9,1.9,1.9h34.1c1.1,0,1.9-0.9,1.9-1.9L43.5,20.7L43.5,20.7z M24.5,14.9c-5.4,0-9.8,4.3-9.8,9.5c0,5.3,4.4,9.5,9.8,9.5
	c5.4,0,9.8-4.3,9.8-9.5C34.4,19.1,30,14.9,24.5,14.9z"/>
</svg>
